<?xml version="1.0" standalone="no"?>
<!DOCTYPE svg PUBLIC "-//W3C//DTD SVG 20010904//EN"
 "http://www.w3.org/TR/2001/REC-SVG-20010904/DTD/svg10.dtd">
<svg version="1.0" xmlns="http://www.w3.org/2000/svg"
 width="1162.000000pt" height="1162.000000pt" viewBox="0 0 1162.000000 1162.000000"
 preserveAspectRatio="xMidYMid meet">
<metadata>
Created by potrace 1.14, written by Peter Selinger 2001-2017
</metadata>
<g transform="translate(0.000000,1162.000000) scale(0.100000,-0.100000)"
fill="#000000" stroke="none">
<path d="M5637 11614 c-1 -1 -65 -5 -142 -8 -77 -4 -153 -9 -170 -11 -16 -2
-59 -6 -95 -9 -71 -6 -72 -6 -275 -36 -164 -24 -170 -25 -300 -51 -123 -25
-139 -29 -325 -74 -121 -30 -436 -131 -585 -188 -314 -120 -663 -291 -930
-454 -11 -7 -51 -31 -90 -55 -38 -23 -72 -45 -75 -48 -3 -3 -32 -23 -65 -44
-137 -88 -425 -307 -550 -417 -142 -125 -211 -189 -333 -310 -102 -100 -295
-311 -343 -374 -13 -16 -26 -32 -29 -35 -9 -9 -116 -144 -146 -185 -16 -22
-31 -42 -34 -45 -9 -8 -142 -199 -196 -280 -46 -69 -84 -131 -194 -315 -54
-91 -247 -484 -298 -605 -50 -122 -55 -134 -56 -140 -1 -3 -9 -24 -18 -45 -59
-140 -176 -517 -223 -725 -15 -63 -28 -119 -29 -125 -2 -5 -6 -28 -11 -50 -4
-22 -10 -49 -12 -60 -4 -18 -33 -190 -47 -270 -2 -16 -8 -59 -11 -95 -4 -36
-9 -74 -11 -84 -2 -11 -6 -49 -9 -85 -3 -36 -8 -95 -11 -131 -3 -36 -8 -96
-10 -135 -5 -87 -5 -570 0 -645 5 -79 17 -220 21 -255 2 -16 6 -57 10 -90 3
-33 8 -71 10 -85 2 -14 7 -45 10 -70 4 -25 8 -57 11 -72 12 -78 15 -97 25
-148 6 -30 12 -66 15 -80 2 -14 11 -56 20 -95 9 -38 18 -79 20 -90 4 -18 28
-115 38 -155 3 -8 9 -33 14 -55 38 -152 168 -535 227 -670 7 -16 35 -79 60
-140 162 -379 398 -782 672 -1148 86 -115 247 -314 273 -337 3 -3 22 -25 44
-50 136 -157 466 -475 635 -610 24 -19 48 -40 55 -46 33 -30 271 -205 392
-287 441 -299 918 -533 1434 -704 74 -25 142 -46 151 -48 9 -2 47 -13 85 -24
74 -22 299 -78 349 -87 17 -3 50 -10 75 -15 25 -6 56 -12 70 -14 14 -2 48 -9
77 -14 29 -6 74 -13 100 -16 26 -3 58 -8 71 -11 12 -2 44 -7 70 -9 26 -3 61
-7 77 -10 17 -2 64 -7 105 -10 41 -4 86 -9 100 -11 129 -22 804 -22 975 1 17
2 62 7 100 10 39 3 81 8 95 10 14 2 48 6 75 10 75 9 114 15 180 26 33 6 71 12
85 14 14 2 45 8 70 14 25 5 61 13 80 16 19 3 73 15 120 26 47 11 96 23 110 25
74 14 405 115 545 166 721 262 1323 619 1895 1122 375 330 713 719 996 1148
57 86 104 160 104 164 0 4 6 15 14 23 47 54 260 462 350 671 33 74 67 153 76
175 45 102 109 292 210 620 5 17 11 41 14 55 3 14 11 50 19 80 41 151 105 487
122 635 3 28 8 61 10 75 2 14 7 54 10 90 3 36 8 83 10 105 24 221 24 751 0
1010 -13 144 -22 224 -39 333 -3 15 -7 50 -11 77 -5 39 -56 300 -80 410 -46
205 -131 482 -228 745 -93 250 -288 655 -423 877 -10 17 -34 57 -53 90 -80
138 -288 431 -435 613 -295 365 -672 727 -1046 1006 -111 82 -200 144 -209
144 -5 0 -11 4 -13 8 -10 25 -371 242 -592 355 -408 210 -829 367 -1276 477
-127 31 -304 67 -420 86 -230 36 -260 40 -485 59 -150 13 -638 27 -648 19z"/>
</g>
</svg>
